<svg width="380" height="101" viewBox="0 0 380 101" fill="none" xmlns="http://www.w3.org/2000/svg">
<path d="M166.882 41.7623C166.882 45.1644 165.767 47.905 163.537 49.9841C161.306 52.0632 157.961 53.1027 153.5 53.1027H145.505V70H141.536V30.3652H153.5C157.923 30.3652 161.25 31.4047 163.48 33.4838C165.748 35.5629 166.882 38.3224 166.882 41.7623ZM153.5 49.7006C159.7 49.7006 162.799 47.0545 162.799 41.7623C162.799 39.1162 162.062 37.1127 160.588 35.7519C159.114 34.391 156.751 33.7106 153.5 33.7106H145.505V49.7006H153.5ZM177.511 44.5407C178.38 42.6128 179.704 41.1197 181.48 40.0612C183.295 39.0028 185.506 38.4736 188.114 38.4736V42.6128H187.037C184.164 42.6128 181.858 43.3878 180.119 44.9376C178.38 46.4875 177.511 49.0769 177.511 52.7058V70H173.542V39.0406H177.511V44.5407ZM192.271 54.4636C192.271 51.2883 192.895 48.5099 194.142 46.1284C195.427 43.7091 197.185 41.8568 199.415 40.5716C201.683 39.2485 204.235 38.587 207.07 38.587C210.019 38.587 212.551 39.2674 214.668 40.6283C216.823 41.9891 218.373 43.728 219.318 45.8449V39.0406H223.287V70H219.318V63.139C218.335 65.2559 216.766 67.0137 214.612 68.4123C212.495 69.7732 209.962 70.4536 207.013 70.4536C204.216 70.4536 201.683 69.7921 199.415 68.469C197.185 67.146 195.427 65.2748 194.142 62.8555C192.895 60.4362 192.271 57.6389 192.271 54.4636ZM219.318 54.5203C219.318 52.0254 218.808 49.8329 217.787 47.9428C216.766 46.0528 215.368 44.5974 213.591 43.5768C211.852 42.5561 209.924 42.0458 207.807 42.0458C205.615 42.0458 203.649 42.5372 201.91 43.5201C200.171 44.5029 198.792 45.9394 197.771 47.8294C196.788 49.6817 196.297 51.8931 196.297 54.4636C196.297 56.9963 196.788 59.2266 197.771 61.1545C198.792 63.0445 200.171 64.4999 201.91 65.5205C203.649 66.5034 205.615 66.9948 207.807 66.9948C209.924 66.9948 211.852 66.4845 213.591 65.4638C215.368 64.4432 216.766 62.9878 217.787 61.0978C218.808 59.2077 219.318 57.0152 219.318 54.5203ZM230.534 54.5203C230.534 51.3072 231.176 48.5099 232.462 46.1284C233.747 43.7091 235.524 41.8568 237.792 40.5716C240.06 39.2485 242.649 38.587 245.56 38.587C249.378 38.587 252.515 39.532 254.972 41.4221C257.467 43.3122 259.074 45.8827 259.792 49.1336H255.539C255.01 46.9033 253.857 45.1644 252.081 43.917C250.342 42.6317 248.168 41.9891 245.56 41.9891C243.481 41.9891 241.61 42.4616 239.946 43.4067C238.283 44.3517 236.96 45.7693 235.977 47.6593C235.032 49.5116 234.56 51.7986 234.56 54.5203C234.56 57.242 235.032 59.5479 235.977 61.438C236.96 63.328 238.283 64.7456 239.946 65.6906C241.61 66.6357 243.481 67.1082 245.56 67.1082C248.168 67.1082 250.342 66.4845 252.081 65.237C253.857 63.9518 255.01 62.1751 255.539 59.907H259.792C259.074 63.0823 257.467 65.6339 254.972 67.5618C252.478 69.4897 249.34 70.4536 245.56 70.4536C242.649 70.4536 240.06 69.811 237.792 68.5257C235.524 67.2027 233.747 65.3504 232.462 62.9689C231.176 60.5496 230.534 57.7334 230.534 54.5203ZM272.283 42.386V61.6081C272.283 63.4981 272.642 64.8023 273.36 65.5205C274.078 66.2388 275.344 66.5979 277.159 66.5979H280.788V70H276.535C273.738 70 271.659 69.3574 270.298 68.0721C268.937 66.7491 268.257 64.5944 268.257 61.6081V42.386H263.947V39.0406H268.257V31.2724H272.283V39.0406H280.788V42.386H272.283ZM300.886 70.4536C297.975 70.4536 295.348 69.811 293.004 68.5257C290.698 67.2027 288.865 65.3504 287.504 62.9689C286.181 60.5496 285.519 57.7334 285.519 54.5203C285.519 51.3072 286.2 48.5099 287.561 46.1284C288.922 43.7091 290.774 41.8568 293.117 40.5716C295.461 39.2485 298.088 38.587 300.999 38.587C303.91 38.587 306.537 39.2485 308.881 40.5716C311.262 41.8568 313.114 43.7091 314.438 46.1284C315.798 48.5099 316.479 51.3072 316.479 54.5203C316.479 57.6956 315.798 60.4929 314.438 62.9122C313.077 65.3315 311.205 67.2027 308.824 68.5257C306.443 69.811 303.796 70.4536 300.886 70.4536ZM300.886 66.9948C302.927 66.9948 304.817 66.5412 306.556 65.6339C308.295 64.6889 309.693 63.2902 310.752 61.438C311.848 59.5479 312.396 57.242 312.396 54.5203C312.396 51.7986 311.867 49.5116 310.809 47.6593C309.75 45.7693 308.351 44.3706 306.613 43.4634C304.874 42.5183 302.984 42.0458 300.942 42.0458C298.901 42.0458 297.011 42.5183 295.272 43.4634C293.533 44.3706 292.135 45.7693 291.076 47.6593C290.056 49.5116 289.545 51.7986 289.545 54.5203C289.545 57.242 290.056 59.5479 291.076 61.438C292.135 63.2902 293.514 64.6889 295.215 65.6339C296.954 66.5412 298.844 66.9948 300.886 66.9948ZM340.441 70L327.683 56.108V70H323.714V28.0404H327.683V52.8759L340.158 39.0406H345.715L331.029 54.4636L345.828 70H340.441ZM352.942 33.2003C352.148 33.2003 351.468 32.9168 350.901 32.3497C350.334 31.7827 350.05 31.0834 350.05 30.2518C350.05 29.4201 350.334 28.7397 350.901 28.2105C351.468 27.6435 352.148 27.36 352.942 27.36C353.736 27.36 354.417 27.6435 354.984 28.2105C355.551 28.7397 355.834 29.4201 355.834 30.2518C355.834 31.0834 355.551 31.7827 354.984 32.3497C354.417 32.9168 353.736 33.2003 352.942 33.2003ZM354.927 39.0406V70H350.958V39.0406H354.927ZM369.075 42.386V61.6081C369.075 63.4981 369.434 64.8023 370.152 65.5205C370.871 66.2388 372.137 66.5979 373.951 66.5979H377.58V70H373.328C370.53 70 368.451 69.3574 367.09 68.0721C365.73 66.7491 365.049 64.5944 365.049 61.6081V42.386H360.74V39.0406H365.049V31.2724H369.075V39.0406H377.58V42.386H369.075Z" fill="white"/>
<path d="M119.514 86.1421C119.457 89.0281 118.256 91.7732 116.176 93.7734C114.096 95.7737 111.307 96.8652 108.423 96.8079C105.539 96.7507 102.795 95.5493 100.796 93.4681C98.7972 91.3868 97.7063 88.5962 97.7635 85.7102C97.7611 84.956 97.8398 84.2037 97.9981 83.4663C98.1782 82.699 98.0775 81.8925 97.7142 81.1931C97.351 80.4938 96.7493 79.9478 96.0182 79.6543C95.5481 79.4758 95.0607 79.3468 94.5639 79.2694C94.0727 79.1913 93.5709 79.2117 93.0876 79.3294C92.6044 79.447 92.1493 79.6596 91.7489 79.9548C84.4731 85.0751 75.6926 87.6086 66.8093 87.1508C57.926 86.693 49.4521 83.2703 42.7405 77.4292C42.3191 77.0488 41.8184 76.7672 41.2747 76.6048C40.7309 76.4424 40.1578 76.4033 39.5971 76.4903C38.9709 76.5992 38.3718 76.8288 37.8331 77.1663C37.181 77.6041 36.658 78.2084 36.3181 78.9167C35.9782 79.6249 35.8339 80.4113 35.9001 81.1941C35.9001 81.4852 35.9001 81.7669 35.9001 82.0579C35.8982 85.6119 34.8427 89.0854 32.8671 92.0388C30.8915 94.9923 28.0847 97.2929 24.8019 98.6495C21.519 100.006 17.9078 100.358 14.4251 99.6598C10.9425 98.9619 7.74509 97.2459 5.23755 94.7289C2.73001 92.2119 1.02507 89.0072 0.338532 85.5202C-0.348007 82.0333 0.014711 78.421 1.38078 75.1404C2.74685 71.8598 5.05485 69.0585 8.01269 67.091C10.9705 65.1235 14.4452 64.0782 17.997 64.0875C18.7675 64.1027 19.5359 64.1748 20.2959 64.3034C21.894 64.5369 23.5234 64.2048 24.903 63.3645C26.5213 62.3614 27.9272 61.0504 29.041 59.5057C29.4621 58.9356 29.7583 58.283 29.9103 57.5906C30.0623 56.8981 30.0666 56.1814 29.923 55.4872C28.7519 49.8575 28.8133 44.0408 30.1029 38.4371C31.3926 32.8334 33.8799 27.5757 37.3939 23.0255C40.9078 18.4754 45.365 14.7408 50.4589 12.0786C55.5528 9.41636 61.1625 7.88971 66.9022 7.60361C71.1078 7.41223 75.317 7.89078 79.3725 9.02134C83.2044 6.67595 87.6234 5.46797 92.1148 5.53804C96.796 5.6027 101.354 7.04654 105.22 9.68908C109.086 12.3316 112.087 16.0556 113.849 20.3956C115.611 24.7356 116.056 29.499 115.128 34.0905C114.199 38.682 111.939 42.8978 108.629 46.2109C108.629 46.6053 108.629 47.0184 108.629 47.4127C109.417 57.8063 103.825 66.4253 102.061 68.8571C101.66 69.4117 101.402 70.0567 101.31 70.7349C101.246 71.1612 101.246 71.5948 101.31 72.0211C101.441 72.8104 101.688 73.576 102.042 74.2933C102.315 74.8208 102.77 75.231 103.322 75.447C103.875 75.663 104.487 75.6701 105.045 75.4669C106.72 74.8748 108.515 74.7025 110.273 74.9651C112.03 75.2278 113.697 75.9173 115.126 76.9734C116.556 78.0295 117.705 79.42 118.473 81.0233C119.241 82.6265 119.605 84.3937 119.533 86.1703L119.514 86.1421Z" fill="white"/>
<path d="M30.6101 19.6229C36.0255 19.6229 40.4156 15.2302 40.4156 9.81144C40.4156 4.39273 36.0255 0 30.6101 0C25.1947 0 20.8047 4.39273 20.8047 9.81144C20.8047 15.2302 25.1947 19.6229 30.6101 19.6229Z" fill="white"/>
<path d="M69.097 83.306L38.5547 65.8989L38.9206 29.7139L69.4629 47.121L69.097 83.306Z" fill="#145DA0" stroke="white" stroke-width="1.34243" stroke-linejoin="round"/>
<path d="M59.9863 57.9315L47.9852 51.0869L47.957 53.5562L59.9581 60.4007L59.9863 57.9315Z" fill="white"/>
<path d="M69.4681 47.1222L38.9258 29.7151L69.8622 12.5615L100.404 29.9686L69.4681 47.1222Z" fill="#2E8BC0" stroke="white" stroke-width="1.34243" stroke-linejoin="round"/>
<path d="M79.8112 28.3527L60.7539 28.2119V30.0991L79.8112 30.2399V28.3527Z" fill="white"/>
<path d="M70.2718 25.0283C69.3334 25.0283 68.6016 25.4414 68.6016 25.9672C68.6016 26.493 69.3428 26.9061 70.2718 26.9061C71.2007 26.9061 71.9514 26.493 71.9514 25.9672C71.9514 25.4414 71.2007 25.0283 70.2718 25.0283Z" fill="white"/>
<path d="M70.2718 31.5449C69.3335 31.5449 68.6016 31.958 68.6016 32.4838C68.6016 33.0096 69.3428 33.4227 70.2718 33.4227C71.2007 33.4227 71.9514 33.0096 71.9514 32.4838C71.9514 31.958 71.2007 31.5449 70.2718 31.5449Z" fill="white"/>
<path d="M100.4 29.9688L100.034 66.1537L69.0977 83.3073L69.4636 47.1223L100.4 29.9688Z" fill="#0C2D48" stroke="white" stroke-width="1.34243" stroke-linecap="round" stroke-linejoin="round"/>
<path d="M86.4623 48.5303L84.1353 49.8166L84.0696 56.1917L78.618 59.2243L78.5898 61.9471L84.0415 58.9238L83.9758 65.2989L86.3028 64.0033L86.3685 57.6282L91.8202 54.6049L91.8483 51.8821L86.3967 54.9054L86.4623 48.5303Z" fill="white"/>
<path d="M10.1436 90.6518C10.3 91.0352 10.6668 91.2849 11.0732 91.2849H23.826C24.3821 91.2849 24.8329 90.8247 24.8329 90.2565V87.172C24.8329 86.604 24.3822 86.1437 23.826 86.1437C23.2697 86.1437 22.8189 86.6039 22.8189 87.172V89.2283H13.4926L18.1042 84.4873C18.4734 84.1075 18.496 83.5018 18.1556 83.0949L13.2563 77.2323H22.8192V77.9178C22.8192 78.4858 23.2698 78.946 23.8262 78.946C24.3827 78.946 24.8331 78.4858 24.8331 77.9178V76.2041C24.8331 75.6361 24.3825 75.1758 23.8262 75.1758H11.0732C10.6805 75.1758 10.3235 75.4092 10.1591 75.7736C9.99457 76.138 10.0527 76.5667 10.3074 76.8717L16.0223 83.7101L10.3591 89.532C10.0724 89.8266 9.98754 90.2683 10.1436 90.6518Z" fill="#404E67"/>
<path d="M113.006 82.7944H110.792V89.989C110.792 90.2943 111.04 90.5424 111.346 90.5424C111.651 90.5424 111.899 90.2943 111.899 89.989C111.899 89.6831 112.147 89.4356 112.453 89.4356C112.758 89.4356 113.006 89.6831 113.006 89.989C113.006 90.9045 112.261 91.6493 111.346 91.6493C110.43 91.6493 109.685 90.9045 109.685 89.989V82.7944H107.472V88.8821C107.472 90.4079 106.23 91.6493 104.705 91.6493C104.399 91.6493 104.151 91.4018 104.151 91.0959C104.151 90.79 104.399 90.5424 104.705 90.5424C105.62 90.5424 106.365 89.7977 106.365 88.8821V82.7944H105.258C104.953 82.7944 104.705 83.0425 104.705 83.3478C104.705 83.6537 104.457 83.9012 104.151 83.9012C103.845 83.9012 103.598 83.6537 103.598 83.3478C103.598 82.4323 104.342 81.6875 105.258 81.6875H113.006C113.312 81.6875 113.559 81.935 113.559 82.2409C113.559 82.5468 113.312 82.7944 113.006 82.7944Z" fill="#404E67"/>
<path d="M31.1254 4.98047L28.8563 12.9713L27.1767 8.73865H23.9023V10.2089H26.2204L28.4938 15.9384H29.4981L32.1925 6.45075H36.8527V4.98047H31.1254Z" fill="#404E67"/>
</svg>
