<svg width="149" height="100" viewBox="0 0 149 100" fill="none" xmlns="http://www.w3.org/2000/svg">
<path d="M18.1673 81.8324C18.1673 83.9008 17.4893 85.567 16.1334 86.831C14.7774 88.095 12.7435 88.727 10.0317 88.727H5.17095V99H2.75784V74.9033H10.0317C12.7205 74.9033 14.743 75.5354 16.0989 76.7994C17.4778 78.0634 18.1673 79.7411 18.1673 81.8324ZM10.0317 86.6587C13.8007 86.6587 15.6852 85.0499 15.6852 81.8324C15.6852 80.2237 15.2371 79.0056 14.3408 78.1783C13.4445 77.3509 12.0081 76.9373 10.0317 76.9373H5.17095V86.6587H10.0317ZM24.6294 83.5216C25.158 82.3495 25.9623 81.4417 27.0425 80.7982C28.1456 80.1547 29.4901 79.833 31.0758 79.833V82.3495H30.4208C28.6742 82.3495 27.2723 82.8207 26.2151 83.7629C25.158 84.7052 24.6294 86.2795 24.6294 88.4857V99H22.2163V80.1777H24.6294V83.5216ZM33.6029 89.5544C33.6029 87.6239 33.9821 85.9347 34.7405 84.4869C35.5219 83.016 36.5905 81.8899 37.9465 81.1085C39.3254 80.3041 40.8767 79.9019 42.6003 79.9019C44.3929 79.9019 45.9327 80.3156 47.2197 81.143C48.5297 81.9703 49.4719 83.0275 50.0465 84.3145V80.1777H52.4596V99H50.0465V94.8288C49.449 96.1158 48.4952 97.1844 47.1852 98.0348C45.8982 98.8621 44.3584 99.2758 42.5658 99.2758C40.8652 99.2758 39.3254 98.8736 37.9465 98.0692C36.5905 97.2649 35.5219 96.1272 34.7405 94.6564C33.9821 93.1855 33.6029 91.4849 33.6029 89.5544ZM50.0465 89.5889C50.0465 88.072 49.7362 86.7391 49.1157 85.59C48.4952 84.4409 47.6449 83.5561 46.5647 82.9356C45.5075 82.3151 44.3355 82.0048 43.0485 82.0048C41.7155 82.0048 40.5204 82.3036 39.4633 82.9011C38.4061 83.4986 37.5673 84.3719 36.9467 85.521C36.3492 86.6472 36.0504 87.9916 36.0504 89.5544C36.0504 91.0942 36.3492 92.4501 36.9467 93.6222C37.5673 94.7713 38.4061 95.6561 39.4633 96.2766C40.5204 96.8742 41.7155 97.1729 43.0485 97.1729C44.3355 97.1729 45.5075 96.8627 46.5647 96.2422C47.6449 95.6216 48.4952 94.7368 49.1157 93.5877C49.7362 92.4386 50.0465 91.1057 50.0465 89.5889ZM56.8654 89.5889C56.8654 87.6354 57.2561 85.9347 58.0375 84.4869C58.8189 83.016 59.899 81.8899 61.278 81.1085C62.6569 80.3041 64.2312 79.9019 66.0008 79.9019C68.322 79.9019 70.2295 80.4765 71.7233 81.6256C73.2401 82.7747 74.2168 84.3375 74.6535 86.3139H72.068C71.7463 84.958 71.0453 83.9008 69.9652 83.1424C68.908 82.361 67.5865 81.9703 66.0008 81.9703C64.7368 81.9703 63.5992 82.2576 62.5879 82.8321C61.5767 83.4067 60.7724 84.2685 60.1748 85.4176C59.6003 86.5437 59.313 87.9342 59.313 89.5889C59.313 91.2436 59.6003 92.6455 60.1748 93.7946C60.7724 94.9437 61.5767 95.8055 62.5879 96.38C63.5992 96.9546 64.7368 97.2419 66.0008 97.2419C67.5865 97.2419 68.908 96.8627 69.9652 96.1043C71.0453 95.3229 71.7463 94.2427 72.068 92.8638H74.6535C74.2168 94.7943 73.2401 96.3456 71.7233 97.5177C70.2065 98.6897 68.299 99.2758 66.0008 99.2758C64.2312 99.2758 62.6569 98.8851 61.278 98.1037C59.899 97.2993 58.8189 96.1732 58.0375 94.7253C57.2561 93.2545 56.8654 91.5423 56.8654 89.5889ZM82.2473 82.2116V93.898C82.2473 95.0471 82.4656 95.84 82.9022 96.2766C83.3389 96.7133 84.1088 96.9316 85.2119 96.9316H87.4182V99H84.8327C83.1321 99 81.8681 98.6093 81.0407 97.8279C80.2134 97.0235 79.7997 95.7136 79.7997 93.898V82.2116H77.1797V80.1777H79.7997V75.4549H82.2473V80.1777H87.4182V82.2116H82.2473ZM99.637 99.2758C97.8674 99.2758 96.2702 98.8851 94.8453 98.1037C93.4434 97.2993 92.3287 96.1732 91.5014 94.7253C90.697 93.2545 90.2948 91.5423 90.2948 89.5889C90.2948 87.6354 90.7085 85.9347 91.5359 84.4869C92.3632 83.016 93.4893 81.8899 94.9142 81.1085C96.3391 80.3041 97.9363 79.9019 99.706 79.9019C101.476 79.9019 103.073 80.3041 104.498 81.1085C105.946 81.8899 107.072 83.016 107.876 84.4869C108.703 85.9347 109.117 87.6354 109.117 89.5889C109.117 91.5194 108.703 93.22 107.876 94.6909C107.049 96.1617 105.911 97.2993 104.463 98.1037C103.015 98.8851 101.407 99.2758 99.637 99.2758ZM99.637 97.1729C100.878 97.1729 102.027 96.8971 103.084 96.3456C104.141 95.771 104.992 94.9207 105.635 93.7946C106.302 92.6455 106.635 91.2436 106.635 89.5889C106.635 87.9342 106.313 86.5437 105.67 85.4176C105.026 84.2685 104.176 83.4182 103.119 82.8666C102.062 82.2921 100.913 82.0048 99.6715 82.0048C98.4305 82.0048 97.2814 82.2921 96.2242 82.8666C95.167 83.4182 94.3167 84.2685 93.6732 85.4176C93.0527 86.5437 92.7424 87.9342 92.7424 89.5889C92.7424 91.2436 93.0527 92.6455 93.6732 93.7946C94.3167 94.9207 95.1555 95.771 96.1897 96.3456C97.2469 96.8971 98.396 97.1729 99.637 97.1729ZM123.685 99L115.929 90.5541V99H113.516V73.49H115.929V88.5891L123.513 80.1777H126.891L117.963 89.5544L126.96 99H123.685ZM131.286 76.627C130.803 76.627 130.389 76.4546 130.045 76.1099C129.7 75.7652 129.528 75.34 129.528 74.8344C129.528 74.3288 129.7 73.9151 130.045 73.5934C130.389 73.2486 130.803 73.0763 131.286 73.0763C131.768 73.0763 132.182 73.2486 132.527 73.5934C132.871 73.9151 133.044 74.3288 133.044 74.8344C133.044 75.34 132.871 75.7652 132.527 76.1099C132.182 76.4546 131.768 76.627 131.286 76.627ZM132.492 80.1777V99H130.079V80.1777H132.492ZM141.094 82.2116V93.898C141.094 95.0471 141.312 95.84 141.749 96.2766C142.185 96.7133 142.955 96.9316 144.058 96.9316H146.265V99H143.679C141.979 99 140.715 98.6093 139.887 97.8279C139.06 97.0235 138.646 95.7136 138.646 93.898V82.2116H136.026V80.1777H138.646V75.4549H141.094V80.1777H146.265V82.2116H141.094Z" fill="#222222"/>
<path d="M104.66 52.3745C104.626 54.1291 103.896 55.798 102.631 57.0141C101.367 58.2302 99.671 58.8938 97.9175 58.859C96.1639 58.8242 94.496 58.0937 93.2807 56.8284C92.0654 55.5631 91.4022 53.8665 91.437 52.1119C91.4355 51.6534 91.4833 51.196 91.5796 50.7477C91.689 50.2812 91.6278 49.7909 91.407 49.3657C91.1861 48.9405 90.8203 48.6086 90.3759 48.4302C90.0901 48.3216 89.7937 48.2432 89.4917 48.1961C89.193 48.1487 88.888 48.1611 88.5942 48.2326C88.3004 48.3041 88.0237 48.4334 87.7803 48.6128C83.3568 51.7258 78.0186 53.2661 72.6178 52.9878C67.2171 52.7094 62.0652 50.6285 57.9848 47.0773C57.7286 46.8461 57.4242 46.6749 57.0936 46.5761C56.763 46.4774 56.4146 46.4536 56.0737 46.5065C55.693 46.5727 55.3288 46.7123 55.0012 46.9175C54.6048 47.1837 54.2868 47.5511 54.0802 47.9817C53.8735 48.4123 53.7858 48.8903 53.8261 49.3663C53.8261 49.5433 53.8261 49.7145 53.8261 49.8915C53.8249 52.0521 53.1832 54.1639 51.9821 55.9595C50.781 57.7551 49.0746 59.1538 47.0787 59.9786C45.0828 60.8033 42.8873 61.0171 40.77 60.5928C38.6527 60.1685 36.7088 59.1252 35.1843 57.595C33.6598 56.0647 32.6232 54.1164 32.2058 51.9964C31.7884 49.8765 32.0089 47.6803 32.8395 45.6858C33.67 43.6913 35.0732 41.9882 36.8714 40.792C38.6697 39.5959 40.7822 38.9604 42.9416 38.966C43.41 38.9753 43.8772 39.0191 44.3392 39.0973C45.3108 39.2392 46.3015 39.0374 47.1402 38.5265C48.1241 37.9166 48.9788 37.1196 49.656 36.1804C49.912 35.8338 50.0921 35.4371 50.1845 35.0161C50.2769 34.5951 50.2795 34.1594 50.1922 33.7373C49.4802 30.3147 49.5175 26.7783 50.3016 23.3714C51.0856 19.9646 52.5979 16.7681 54.7342 14.0017C56.8706 11.2354 59.5804 8.96488 62.6773 7.34634C65.7742 5.72781 69.1847 4.79965 72.6743 4.62571C75.2311 4.50936 77.7902 4.8003 80.2558 5.48765C82.5855 4.06173 85.2721 3.32732 88.0027 3.36992C90.8487 3.40923 93.62 4.28703 95.9702 5.89361C98.3204 7.50019 100.145 9.76426 101.217 12.4028C102.288 15.0414 102.558 17.9374 101.994 20.7289C101.429 23.5203 100.055 26.0834 98.043 28.0977C98.043 28.3374 98.043 28.5886 98.043 28.8283C98.5222 35.1473 95.1222 40.3874 94.0497 41.8658C93.806 42.2029 93.6493 42.5951 93.5933 43.0074C93.5542 43.2666 93.5542 43.5302 93.5933 43.7894C93.673 44.2693 93.8229 44.7347 94.0383 45.1708C94.2038 45.4915 94.4805 45.7409 94.8165 45.8722C95.1525 46.0036 95.5248 46.0079 95.8638 45.8843C96.8824 45.5243 97.9737 45.4196 99.0422 45.5793C100.111 45.739 101.124 46.1582 101.993 46.8002C102.862 47.4423 103.56 48.2877 104.027 49.2624C104.495 50.2372 104.716 51.3116 104.672 52.3916L104.66 52.3745Z" fill="#0C2D48"/>
<path d="M50.6137 11.9301C53.9061 11.9301 56.5751 9.25943 56.5751 5.96503C56.5751 2.67064 53.9061 0 50.6137 0C47.3213 0 44.6523 2.67064 44.6523 5.96503C44.6523 9.25943 47.3213 11.9301 50.6137 11.9301Z" fill="#0C2D48"/>
<path d="M74.0062 50.6476L55.4375 40.0647L55.66 18.0654L74.2287 28.6484L74.0062 50.6476Z" fill="#145DA0" stroke="white" stroke-width="0.816152" stroke-linejoin="round"/>
<path d="M68.4618 35.215L61.1656 31.0537L61.1484 32.555L68.4447 36.7162L68.4618 35.215Z" fill="white"/>
<path d="M74.2328 28.6475L55.6641 18.0646L74.4724 7.63574L93.0411 18.2187L74.2328 28.6475Z" fill="#2E8BC0" stroke="white" stroke-width="0.816152" stroke-linejoin="round"/>
<path d="M80.5159 17.2409L68.9297 17.1553V18.3026L80.5159 18.3882V17.2409Z" fill="white"/>
<path d="M74.7264 15.2188C74.1559 15.2188 73.7109 15.4699 73.7109 15.7896C73.7109 16.1092 74.1616 16.3604 74.7264 16.3604C75.2911 16.3604 75.7475 16.1092 75.7475 15.7896C75.7475 15.4699 75.2911 15.2188 74.7264 15.2188Z" fill="white"/>
<path d="M74.7147 19.1797C74.1442 19.1797 73.6992 19.4308 73.6992 19.7505C73.6992 20.0702 74.1499 20.3213 74.7147 20.3213C75.2794 20.3213 75.7358 20.0702 75.7358 19.7505C75.7358 19.4308 75.2794 19.1797 74.7147 19.1797Z" fill="white"/>
<path d="M93.0386 18.2217L92.8161 40.2209L74.0078 50.6498L74.2303 28.6505L93.0386 18.2217Z" fill="#0C2D48" stroke="white" stroke-width="0.816152" stroke-linecap="round" stroke-linejoin="round"/>
<path d="M84.5518 29.5039L83.1371 30.2859L83.0972 34.1618L79.7827 36.0055L79.7656 37.6609L83.08 35.8228L83.0401 39.6987L84.4549 38.911L84.4948 35.0351L87.8092 33.1971L87.8263 31.5417L84.5119 33.3798L84.5518 29.5039Z" fill="white"/>
<path d="M38.1563 55.1111C38.2514 55.3441 38.4744 55.496 38.7215 55.496H46.4747C46.8128 55.496 47.0869 55.2162 47.0869 54.8707V52.9954C47.0869 52.6501 46.8129 52.3703 46.4747 52.3703C46.1365 52.3703 45.8625 52.65 45.8625 52.9954V54.2456H40.1924L42.9961 51.3632C43.2205 51.1323 43.2343 50.7641 43.0273 50.5167L40.0488 46.9525H45.8626V47.3692C45.8626 47.7145 46.1366 47.9943 46.4749 47.9943C46.8132 47.9943 47.0871 47.7145 47.0871 47.3692V46.3273C47.0871 45.982 46.8131 45.7021 46.4749 45.7021H38.7215C38.4827 45.7021 38.2657 45.8441 38.1657 46.0656C38.0657 46.2871 38.101 46.5478 38.2559 46.7332L41.7304 50.8907L38.2873 54.4303C38.113 54.6094 38.0614 54.8779 38.1563 55.1111Z" fill="white"/>
</svg>
