<svg width="229" height="61" viewBox="0 0 229 61" fill="none" xmlns="http://www.w3.org/2000/svg">
<path d="M100.94 25.0469C100.94 27.0895 100.271 28.7349 98.9318 29.9831C97.5928 31.2313 95.5843 31.8554 92.9063 31.8554H88.1063V42H85.7234V18.2044H92.9063C95.5616 18.2044 97.5587 18.8286 98.8977 20.0768C100.259 21.325 100.94 22.9817 100.94 25.0469ZM92.9063 29.8129C96.6283 29.8129 98.4892 28.2242 98.4892 25.0469C98.4892 23.4583 98.0467 22.2555 97.1616 21.4385C96.2765 20.6214 94.8581 20.2129 92.9063 20.2129H88.1063V29.8129H92.9063ZM107.322 26.715C107.844 25.5576 108.638 24.6611 109.705 24.0257C110.794 23.3902 112.122 23.0725 113.688 23.0725V25.5576H113.041C111.316 25.5576 109.932 26.0228 108.888 26.9533C107.844 27.8838 107.322 29.4384 107.322 31.6171V42H104.939V23.4129H107.322V26.715ZM116.183 32.6724C116.183 30.766 116.557 29.098 117.306 27.6682C118.078 26.2157 119.133 25.1037 120.472 24.3321C121.834 23.5377 123.366 23.1406 125.068 23.1406C126.838 23.1406 128.359 23.5491 129.63 24.3661C130.923 25.1831 131.854 26.2271 132.421 27.498V23.4129H134.804V42H132.421V37.8809C131.831 39.1518 130.889 40.2071 129.596 41.0468C128.325 41.8638 126.804 42.2723 125.034 42.2723C123.355 42.2723 121.834 41.8752 120.472 41.0809C119.133 40.2865 118.078 39.1631 117.306 37.7107C116.557 36.2582 116.183 34.5788 116.183 32.6724ZM132.421 32.7065C132.421 31.2086 132.115 29.8923 131.502 28.7576C130.889 27.6228 130.05 26.7491 128.983 26.1363C127.939 25.5235 126.781 25.2172 125.511 25.2172C124.194 25.2172 123.014 25.5122 121.97 26.1023C120.926 26.6923 120.098 27.5547 119.485 28.6895C118.895 29.8015 118.6 31.1292 118.6 32.6724C118.6 34.193 118.895 35.532 119.485 36.6894C120.098 37.8241 120.926 38.6979 121.97 39.3107C123.014 39.9007 124.194 40.1958 125.511 40.1958C126.781 40.1958 127.939 39.8894 128.983 39.2766C130.05 38.6639 130.889 37.7901 131.502 36.6554C132.115 35.5206 132.421 34.2043 132.421 32.7065ZM139.155 32.7065C139.155 30.7774 139.541 29.098 140.312 27.6682C141.084 26.2157 142.151 25.1037 143.512 24.3321C144.874 23.5377 146.429 23.1406 148.176 23.1406C150.468 23.1406 152.352 23.7079 153.827 24.8427C155.325 25.9774 156.289 27.5207 156.721 29.4724H154.168C153.85 28.1334 153.158 27.0895 152.091 26.3406C151.047 25.5689 149.742 25.1831 148.176 25.1831C146.928 25.1831 145.804 25.4668 144.806 26.0342C143.807 26.6015 143.013 27.4526 142.423 28.5873C141.856 29.6994 141.572 31.0724 141.572 32.7065C141.572 34.3405 141.856 35.7249 142.423 36.8596C143.013 37.9944 143.807 38.8454 144.806 39.4128C145.804 39.9802 146.928 40.2638 148.176 40.2638C149.742 40.2638 151.047 39.8894 152.091 39.1404C153.158 38.3688 153.85 37.3022 154.168 35.9405H156.721C156.289 37.8468 155.325 39.3787 153.827 40.5362C152.329 41.6936 150.446 42.2723 148.176 42.2723C146.429 42.2723 144.874 41.8865 143.512 41.1149C142.151 40.3206 141.084 39.2085 140.312 37.7788C139.541 36.3263 139.155 34.6355 139.155 32.7065ZM164.22 25.4214V36.9617C164.22 38.0965 164.435 38.8795 164.866 39.3107C165.298 39.7419 166.058 39.9575 167.147 39.9575H169.326V42H166.773C165.093 42 163.845 41.6142 163.028 40.8426C162.211 40.0482 161.803 38.7546 161.803 36.9617V25.4214H159.215V23.4129H161.803V18.7491H164.22V23.4129H169.326V25.4214H164.22ZM181.392 42.2723C179.645 42.2723 178.067 41.8865 176.66 41.1149C175.276 40.3206 174.175 39.2085 173.358 37.7788C172.564 36.3263 172.167 34.6355 172.167 32.7065C172.167 30.7774 172.575 29.098 173.392 27.6682C174.209 26.2157 175.321 25.1037 176.728 24.3321C178.135 23.5377 179.713 23.1406 181.46 23.1406C183.208 23.1406 184.785 23.5377 186.192 24.3321C187.622 25.1037 188.734 26.2157 189.528 27.6682C190.345 29.098 190.754 30.7774 190.754 32.7065C190.754 34.6128 190.345 36.2922 189.528 37.7447C188.711 39.1972 187.588 40.3206 186.158 41.1149C184.728 41.8865 183.14 42.2723 181.392 42.2723ZM181.392 40.1958C182.618 40.1958 183.752 39.9234 184.796 39.3787C185.84 38.8114 186.68 37.9717 187.315 36.8596C187.974 35.7249 188.303 34.3405 188.303 32.7065C188.303 31.0724 187.985 29.6994 187.349 28.5873C186.714 27.4526 185.874 26.6129 184.83 26.0682C183.786 25.5008 182.652 25.2172 181.426 25.2172C180.201 25.2172 179.066 25.5008 178.022 26.0682C176.978 26.6129 176.138 27.4526 175.503 28.5873C174.89 29.6994 174.584 31.0724 174.584 32.7065C174.584 34.3405 174.89 35.7249 175.503 36.8596C176.138 37.9717 176.967 38.8114 177.988 39.3787C179.032 39.9234 180.167 40.1958 181.392 40.1958ZM205.14 42L197.48 33.6596V42H195.097V16.8087H197.48V31.7192L204.97 23.4129H208.306L199.489 32.6724L208.374 42H205.14ZM212.645 19.9066C212.169 19.9066 211.76 19.7363 211.42 19.3959C211.079 19.0555 210.909 18.6356 210.909 18.1364C210.909 17.6371 211.079 17.2286 211.42 16.9108C211.76 16.5704 212.169 16.4002 212.645 16.4002C213.122 16.4002 213.53 16.5704 213.871 16.9108C214.211 17.2286 214.381 17.6371 214.381 18.1364C214.381 18.6356 214.211 19.0555 213.871 19.3959C213.53 19.7363 213.122 19.9066 212.645 19.9066ZM213.837 23.4129V42H211.454V23.4129H213.837ZM222.331 25.4214V36.9617C222.331 38.0965 222.546 38.8795 222.978 39.3107C223.409 39.7419 224.169 39.9575 225.258 39.9575H227.437V42H224.884C223.205 42 221.956 41.6142 221.139 40.8426C220.322 40.0482 219.914 38.7546 219.914 36.9617V25.4214H217.327V23.4129H219.914V18.7491H222.331V23.4129H227.437V25.4214H222.331Z" fill="white"/>
<path d="M71.7525 51.7172C71.7181 53.4499 70.9973 55.098 69.7485 56.2988C68.4998 57.4997 66.8254 58.1551 65.0938 58.1207C63.3622 58.0863 61.7151 57.365 60.515 56.1155C59.3148 54.866 58.6599 53.1906 58.6943 51.4579C58.6928 51.0051 58.7401 50.5534 58.8351 50.1107C58.9432 49.6501 58.8828 49.1659 58.6647 48.746C58.4466 48.3261 58.0854 47.9984 57.6465 47.8222C57.3642 47.715 57.0716 47.6375 56.7733 47.5911C56.4784 47.5442 56.1771 47.5564 55.887 47.6271C55.5969 47.6977 55.3237 47.8253 55.0833 48.0026C50.7151 51.0766 45.4436 52.5977 40.1103 52.3228C34.777 52.048 29.6895 49.9931 25.6601 46.4862C25.4071 46.2579 25.1065 46.0888 24.7801 45.9913C24.4536 45.8938 24.1096 45.8703 23.7729 45.9226C23.3969 45.9879 23.0373 46.1258 22.7138 46.3284C22.3224 46.5912 22.0083 46.9541 21.8043 47.3793C21.6002 47.8045 21.5136 48.2766 21.5533 48.7466C21.5533 48.9214 21.5533 49.0905 21.5533 49.2652C21.5522 51.3989 20.9185 53.4843 19.7324 55.2574C18.5464 57.0306 16.8612 58.4118 14.8903 59.2263C12.9194 60.0407 10.7513 60.2518 8.66042 59.8328C6.56956 59.4138 4.64992 58.3836 3.14447 56.8725C1.63901 55.3614 0.615422 53.4373 0.203244 51.3439C-0.208933 49.2504 0.00883205 47.0817 0.828978 45.1121C1.64912 43.1426 3.03478 41.4607 4.81058 40.2795C6.58637 39.0983 8.67247 38.4707 10.8048 38.4763C11.2675 38.4854 11.7288 38.5287 12.185 38.6059C13.1445 38.7461 14.1228 38.5467 14.951 38.0423C15.9226 37.44 16.7666 36.6529 17.4353 35.7255C17.6882 35.3832 17.866 34.9914 17.9572 34.5757C18.0485 34.16 18.0511 33.7297 17.9649 33.3129C17.2618 29.933 17.2986 26.4409 18.0729 23.0766C18.8472 19.7123 20.3405 16.5557 22.4502 13.8239C24.5598 11.0922 27.2358 8.85002 30.294 7.25171C33.3522 5.6534 36.7201 4.73685 40.1661 4.56508C42.691 4.45018 45.2181 4.73749 47.6528 5.41624C49.9534 4.00814 52.6064 3.2829 55.303 3.32497C58.1134 3.36379 60.8501 4.23063 63.1709 5.81713C65.4917 7.40363 67.2937 9.63942 68.3517 12.245C69.4096 14.8506 69.6766 17.7104 69.1192 20.467C68.5618 23.2236 67.2048 25.7546 65.2177 27.7438C65.2177 27.9805 65.2177 28.2285 65.2177 28.4653C65.6909 34.7052 62.3334 39.8799 61.2744 41.3398C61.0337 41.6728 60.8789 42.06 60.8237 42.4672C60.7851 42.7231 60.7851 42.9835 60.8237 43.2394C60.9024 43.7133 61.0504 44.1729 61.2631 44.6035C61.4265 44.9202 61.6998 45.1665 62.0316 45.2962C62.3634 45.4259 62.7311 45.4301 63.0658 45.3081C64.0717 44.9527 65.1493 44.8492 66.2044 45.0069C67.2596 45.1646 68.26 45.5786 69.1182 46.2126C69.9764 46.8467 70.6663 47.6815 71.1275 48.644C71.5887 49.6066 71.8071 50.6676 71.7637 51.7341L71.7525 51.7172Z" fill="white"/>
<path d="M18.3791 11.781C21.6303 11.781 24.266 9.14373 24.266 5.89049C24.266 2.63726 21.6303 0 18.3791 0C15.1278 0 12.4922 2.63726 12.4922 5.89049C12.4922 9.14373 15.1278 11.781 18.3791 11.781Z" fill="white"/>
<path d="M41.4851 50.0149L23.1484 39.5642L23.3681 17.8398L41.7048 28.2905L41.4851 50.0149Z" fill="#145DA0" stroke="white" stroke-width="0.805954" stroke-linejoin="round"/>
<path d="M36.0189 34.7811L28.8138 30.6719L28.7969 32.1544L36.002 36.2636L36.0189 34.7811Z" fill="white"/>
<path d="M41.7039 28.2912L23.3672 17.8405L41.9405 7.54199L60.2772 17.9927L41.7039 28.2912Z" fill="#2E8BC0" stroke="white" stroke-width="0.805954" stroke-linejoin="round"/>
<path d="M47.9219 17.023L36.4805 16.9385V18.0715L47.9219 18.156V17.023Z" fill="white"/>
<path d="M42.1981 15.0273C41.6347 15.0273 41.1953 15.2754 41.1953 15.591C41.1953 15.9067 41.6403 16.1547 42.1981 16.1547C42.7558 16.1547 43.2064 15.9067 43.2064 15.591C43.2064 15.2754 42.7558 15.0273 42.1981 15.0273Z" fill="white"/>
<path d="M42.1981 18.9395C41.6347 18.9395 41.1953 19.1875 41.1953 19.5031C41.1953 19.8188 41.6404 20.0668 42.1981 20.0668C42.7558 20.0668 43.2064 19.8188 43.2064 19.5031C43.2064 19.1875 42.7558 18.9395 42.1981 18.9395Z" fill="white"/>
<path d="M60.2774 17.9932L60.0577 39.7175L41.4844 50.016L41.7041 28.2917L60.2774 17.9932Z" fill="#0C2D48" stroke="white" stroke-width="0.805954" stroke-linecap="round" stroke-linejoin="round"/>
<path d="M51.9139 29.1367L50.5168 29.909L50.4774 33.7364L47.2044 35.5571L47.1875 37.1918L50.4605 35.3767L50.4211 39.2041L51.8181 38.4262L51.8576 34.5988L55.1306 32.7838L55.1475 31.1491L51.8745 32.9641L51.9139 29.1367Z" fill="white"/>
<path d="M6.08933 54.4242C6.1832 54.6543 6.40345 54.8043 6.64744 54.8043H14.3038C14.6377 54.8043 14.9083 54.528 14.9083 54.1868V52.335C14.9083 51.994 14.6378 51.7176 14.3038 51.7176C13.9698 51.7176 13.6992 51.9939 13.6992 52.335V53.5695H8.09996L10.8686 50.7231C11.0903 50.4952 11.1038 50.1315 10.8995 49.8872L7.95811 46.3675H13.6994V46.779C13.6994 47.12 13.9699 47.3963 14.304 47.3963C14.638 47.3963 14.9085 47.12 14.9085 46.779V45.7502C14.9085 45.4092 14.6379 45.1328 14.304 45.1328H6.64744C6.41164 45.1328 6.19734 45.2729 6.09859 45.4917C5.99984 45.7105 6.03474 45.9679 6.18767 46.151L9.61872 50.2565L6.21868 53.7519C6.04657 53.9287 5.99562 54.1939 6.08933 54.4242Z" fill="#404E67"/>
<path d="M67.8438 49.7075H66.5148V54.0269C66.5148 54.2103 66.6637 54.3592 66.847 54.3592C67.0303 54.3592 67.1793 54.2103 67.1793 54.0269C67.1793 53.8433 67.3279 53.6947 67.5115 53.6947C67.6952 53.6947 67.8438 53.8433 67.8438 54.0269C67.8438 54.5766 67.3967 55.0237 66.847 55.0237C66.2974 55.0237 65.8502 54.5766 65.8502 54.0269V49.7075H64.5212V53.3624C64.5212 54.2784 63.7759 55.0237 62.8598 55.0237C62.6762 55.0237 62.5276 54.8751 62.5276 54.6915C62.5276 54.5078 62.6762 54.3592 62.8598 54.3592C63.4095 54.3592 63.8566 53.9121 63.8566 53.3624V49.7075H63.1921C63.0088 49.7075 62.8598 49.8564 62.8598 50.0398C62.8598 50.2234 62.7112 50.372 62.5276 50.372C62.3439 50.372 62.1953 50.2234 62.1953 50.0398C62.1953 49.4901 62.6425 49.043 63.1921 49.043H67.8438C68.0275 49.043 68.1761 49.1916 68.1761 49.3752C68.1761 49.5589 68.0275 49.7075 67.8438 49.7075Z" fill="#404E67"/>
<path d="M18.6842 2.99023L17.3219 7.78767L16.3135 5.24654H14.3477V6.12925H15.7393L17.1042 9.56907H17.7072L19.3248 3.87295H22.1226V2.99023H18.6842Z" fill="#404E67"/>
</svg>
