<svg width="172" height="46" viewBox="0 0 172 46" fill="none" xmlns="http://www.w3.org/2000/svg">
<path d="M75.4478 19.2922C75.4478 20.8232 74.946 22.0566 73.9423 22.9922C72.9386 23.9279 71.4331 24.3957 69.4257 24.3957H65.8277V32H64.0414V14.1631H69.4257C71.416 14.1631 72.9131 14.6309 73.9168 15.5666C74.9375 16.5022 75.4478 17.7441 75.4478 19.2922ZM69.4257 22.8647C72.2156 22.8647 73.6106 21.6738 73.6106 19.2922C73.6106 18.1013 73.2788 17.1997 72.6154 16.5873C71.9519 15.9749 70.8887 15.6687 69.4257 15.6687H65.8277V22.8647H69.4257ZM80.2312 20.5425C80.6225 19.6749 81.2179 19.003 82.0175 18.5266C82.834 18.0503 83.8292 17.8121 85.003 17.8121V19.6749H84.5182C83.2253 19.6749 82.1876 20.0237 81.405 20.7212C80.6225 21.4187 80.2312 22.584 80.2312 24.2171V32H78.445V18.0673H80.2312V20.5425ZM86.8736 25.0081C86.8736 23.5792 87.1543 22.3288 87.7157 21.257C88.2941 20.1683 89.0851 19.3347 90.0888 18.7563C91.1095 18.1609 92.2578 17.8632 93.5337 17.8632C94.8606 17.8632 96.0004 18.1694 96.9531 18.7818C97.9228 19.3942 98.6203 20.1768 99.0456 21.1295V18.0673H100.832V32H99.0456V28.9124C98.6032 29.865 97.8973 30.6561 96.9276 31.2855C95.9749 31.8979 94.8351 32.2041 93.5082 32.2041C92.2493 32.2041 91.1095 31.9064 90.0888 31.311C89.0851 30.7156 88.2941 29.8735 87.7157 28.7848C87.1543 27.696 86.8736 26.4371 86.8736 25.0081ZM99.0456 25.0337C99.0456 23.9109 98.8159 22.9242 98.3566 22.0736C97.8973 21.223 97.2678 20.5681 96.4683 20.1087C95.6857 19.6494 94.8181 19.4198 93.8655 19.4198C92.8788 19.4198 91.9942 19.6409 91.2116 20.0832C90.4291 20.5255 89.8081 21.172 89.3488 22.0226C88.9065 22.8561 88.6854 23.8513 88.6854 25.0081C88.6854 26.1479 88.9065 27.1516 89.3488 28.0192C89.8081 28.8698 90.4291 29.5248 91.2116 29.9841C91.9942 30.4264 92.8788 30.6476 93.8655 30.6476C94.8181 30.6476 95.6857 30.4179 96.4683 29.9586C97.2678 29.4993 97.8973 28.8443 98.3566 27.9937C98.8159 27.1431 99.0456 26.1564 99.0456 25.0337ZM104.093 25.0337C104.093 23.5877 104.382 22.3288 104.961 21.257C105.539 20.1683 106.339 19.3347 107.359 18.7563C108.38 18.1609 109.545 17.8632 110.855 17.8632C112.573 17.8632 113.985 18.2885 115.091 19.1391C116.214 19.9897 116.937 21.1465 117.26 22.6095H115.346C115.108 21.6058 114.589 20.8232 113.79 20.2618C113.007 19.6834 112.029 19.3942 110.855 19.3942C109.92 19.3942 109.078 19.6069 108.329 20.0322C107.58 20.4575 106.985 21.0954 106.543 21.946C106.117 22.7796 105.905 23.8088 105.905 25.0337C105.905 26.2585 106.117 27.2962 106.543 28.1468C106.985 28.9974 107.58 29.6354 108.329 30.0607C109.078 30.4859 109.92 30.6986 110.855 30.6986C112.029 30.6986 113.007 30.4179 113.79 29.8565C114.589 29.2781 115.108 28.4786 115.346 27.4578H117.26C116.937 28.8868 116.214 30.0351 115.091 30.9027C113.968 31.7703 112.556 32.2041 110.855 32.2041C109.545 32.2041 108.38 31.9149 107.359 31.3365C106.339 30.7411 105.539 29.9075 104.961 28.8358C104.382 27.747 104.093 26.4797 104.093 25.0337ZM122.881 19.5729V28.2234C122.881 29.074 123.043 29.6609 123.366 29.9841C123.689 30.3073 124.259 30.4689 125.076 30.4689H126.709V32H124.795C123.536 32 122.601 31.7108 121.988 31.1324C121.376 30.537 121.07 29.5673 121.07 28.2234V19.5729H119.13V18.0673H121.07V14.5714H122.881V18.0673H126.709V19.5729H122.881ZM135.754 32.2041C134.444 32.2041 133.261 31.9149 132.207 31.3365C131.169 30.7411 130.344 29.9075 129.731 28.8358C129.136 27.747 128.838 26.4797 128.838 25.0337C128.838 23.5877 129.144 22.3288 129.757 21.257C130.369 20.1683 131.203 19.3347 132.258 18.7563C133.312 18.1609 134.495 17.8632 135.805 17.8632C137.115 17.8632 138.297 18.1609 139.352 18.7563C140.423 19.3347 141.257 20.1683 141.852 21.257C142.465 22.3288 142.771 23.5877 142.771 25.0337C142.771 26.4627 142.465 27.7215 141.852 28.8103C141.24 29.899 140.398 30.7411 139.326 31.3365C138.254 31.9149 137.063 32.2041 135.754 32.2041ZM135.754 30.6476C136.672 30.6476 137.523 30.4434 138.305 30.0351C139.088 29.6098 139.717 28.9804 140.194 28.1468C140.687 27.2962 140.934 26.2585 140.934 25.0337C140.934 23.8088 140.696 22.7796 140.219 21.946C139.743 21.0954 139.113 20.466 138.331 20.0577C137.548 19.6324 136.698 19.4198 135.779 19.4198C134.86 19.4198 134.01 19.6324 133.227 20.0577C132.445 20.466 131.815 21.0954 131.339 21.946C130.88 22.7796 130.65 23.8088 130.65 25.0337C130.65 26.2585 130.88 27.2962 131.339 28.1468C131.815 28.9804 132.436 29.6098 133.202 30.0351C133.984 30.4434 134.835 30.6476 135.754 30.6476ZM153.555 32L147.813 25.7482V32H146.027V13.1169H147.813V24.2936L153.427 18.0673H155.928L149.319 25.0081L155.979 32H153.555ZM159.181 15.439C158.823 15.439 158.517 15.3114 158.262 15.0562C158.007 14.8011 157.879 14.4863 157.879 14.1121C157.879 13.7378 158.007 13.4316 158.262 13.1934C158.517 12.9383 158.823 12.8107 159.181 12.8107C159.538 12.8107 159.844 12.9383 160.099 13.1934C160.354 13.4316 160.482 13.7378 160.482 14.1121C160.482 14.4863 160.354 14.8011 160.099 15.0562C159.844 15.3114 159.538 15.439 159.181 15.439ZM160.074 18.0673V32H158.288V18.0673H160.074ZM166.441 19.5729V28.2234C166.441 29.074 166.602 29.6609 166.926 29.9841C167.249 30.3073 167.819 30.4689 168.635 30.4689H170.269V32H168.355C167.096 32 166.16 31.7108 165.548 31.1324C164.935 30.537 164.629 29.5673 164.629 28.2234V19.5729H162.69V18.0673H164.629V14.5714H166.441V18.0673H170.269V19.5729H166.441Z" fill="white"/>
<path d="M53.7849 38.7668C53.7591 40.0656 53.2188 41.301 52.2827 42.2011C51.3467 43.1013 50.0916 43.5925 48.7936 43.5668C47.4956 43.541 46.261 43.0003 45.3614 42.0637C44.4618 41.1271 43.9708 39.8713 43.9966 38.5725C43.9955 38.233 44.0309 37.8945 44.1022 37.5626C44.1832 37.2173 44.1379 36.8544 43.9744 36.5396C43.8109 36.2249 43.5401 35.9792 43.2112 35.8471C42.9996 35.7668 42.7802 35.7087 42.5566 35.6739C42.3356 35.6388 42.1098 35.6479 41.8923 35.7009C41.6748 35.7538 41.47 35.8495 41.2898 35.9823C38.0155 38.2866 34.064 39.4268 30.0662 39.2208C26.0685 39.0147 22.2549 37.4744 19.2345 34.8457C19.0449 34.6746 18.8196 34.5478 18.5749 34.4747C18.3302 34.4016 18.0723 34.384 17.8199 34.4232C17.5381 34.4722 17.2685 34.5755 17.026 34.7274C16.7326 34.9244 16.4972 35.1964 16.3443 35.5151C16.1913 35.8339 16.1264 36.1878 16.1562 36.5401C16.1562 36.6711 16.1562 36.7978 16.1562 36.9288C16.1553 38.5282 15.6803 40.0914 14.7912 41.4205C13.9021 42.7497 12.639 43.785 11.1616 44.3955C9.68422 45.006 8.05904 45.1643 6.49175 44.8502C4.92447 44.5361 3.48553 43.7638 2.35706 42.6311C1.22859 41.4984 0.461313 40.0562 0.15235 38.487C-0.156614 36.9177 0.00662041 35.2921 0.621393 33.8157C1.23617 32.3393 2.27484 31.0787 3.60595 30.1932C4.93707 29.3078 6.50079 28.8374 8.09919 28.8416C8.44597 28.8484 8.79177 28.8809 9.13376 28.9387C9.85297 29.0438 10.5863 28.8944 11.2071 28.5162C11.9354 28.0648 12.5681 27.4748 13.0693 26.7796C13.2588 26.523 13.3921 26.2294 13.4605 25.9177C13.5289 25.6061 13.5309 25.2836 13.4663 24.9712C12.9392 22.4376 12.9669 19.8199 13.5472 17.2981C14.1276 14.7763 15.247 12.4101 16.8284 10.3624C18.4098 8.31471 20.4156 6.63403 22.708 5.43595C25.0004 4.23787 27.525 3.55083 30.108 3.42208C32.0007 3.33595 33.895 3.55131 35.72 4.0601C37.4445 3.0046 39.4332 2.46097 41.4545 2.49251C43.5612 2.52161 45.6126 3.17138 47.3522 4.3606C49.0919 5.54983 50.4426 7.22575 51.2357 9.17888C52.0287 11.132 52.2288 13.2757 51.811 15.342C51.3932 17.4083 50.376 19.3055 48.8865 20.7966C48.8865 20.974 48.8865 21.1599 48.8865 21.3374C49.2412 26.0148 46.7245 29.8937 45.9306 30.988C45.7502 31.2376 45.6342 31.5279 45.5928 31.8331C45.5638 32.0249 45.5638 32.2201 45.5928 32.4119C45.6517 32.7671 45.7627 33.1117 45.9221 33.4345C46.0447 33.6719 46.2495 33.8565 46.4982 33.9537C46.7469 34.0509 47.0225 34.0541 47.2734 33.9626C48.0274 33.6962 48.8352 33.6186 49.6261 33.7368C50.417 33.855 51.1669 34.1653 51.8102 34.6406C52.4536 35.1159 52.9707 35.7417 53.3164 36.4632C53.6621 37.1847 53.8258 37.98 53.7933 38.7795L53.7849 38.7668Z" fill="white"/>
<path d="M13.776 8.8309C16.2131 8.8309 18.1888 6.85404 18.1888 4.41545C18.1888 1.97686 16.2131 0 13.776 0C11.3389 0 9.36328 1.97686 9.36328 4.41545C9.36328 6.85404 11.3389 8.8309 13.776 8.8309Z" fill="white"/>
<path d="M31.0965 37.4902L17.3516 29.6564L17.5162 13.3721L31.2612 21.2058L31.0965 37.4902Z" fill="#145DA0" stroke="white" stroke-width="0.604135" stroke-linejoin="round"/>
<path d="M26.9956 26.0705L21.5947 22.9902L21.582 24.1015L26.9829 27.1817L26.9956 26.0705Z" fill="white"/>
<path d="M31.2606 21.2067L17.5156 13.373L31.438 5.65332L45.1829 13.4871L31.2606 21.2067Z" fill="#2E8BC0" stroke="white" stroke-width="0.604135" stroke-linejoin="round"/>
<path d="M35.9201 12.7597L27.3438 12.6963V13.5456L35.9201 13.609V12.7597Z" fill="white"/>
<path d="M31.6305 11.2637C31.2083 11.2637 30.8789 11.4496 30.8789 11.6862C30.8789 11.9228 31.2125 12.1087 31.6305 12.1087C32.0486 12.1087 32.3864 11.9228 32.3864 11.6862C32.3864 11.4496 32.0486 11.2637 31.6305 11.2637Z" fill="white"/>
<path d="M31.6306 14.1963C31.2083 14.1963 30.8789 14.3822 30.8789 14.6188C30.8789 14.8554 31.2125 15.0414 31.6306 15.0414C32.0486 15.0414 32.3864 14.8554 32.3864 14.6188C32.3864 14.3822 32.0486 14.1963 31.6306 14.1963Z" fill="white"/>
<path d="M45.1847 13.4873L45.02 29.7717L31.0977 37.4913L31.2623 21.2069L45.1847 13.4873Z" fill="#0C2D48" stroke="white" stroke-width="0.604135" stroke-linecap="round" stroke-linejoin="round"/>
<path d="M38.9101 21.8408L37.8628 22.4197L37.8333 25.2887L35.3799 26.6535L35.3672 27.8788L37.8206 26.5182L37.791 29.3872L38.8383 28.8041L38.8678 25.9351L41.3212 24.5746L41.3339 23.3493L38.8805 24.7098L38.9101 21.8408Z" fill="white"/>
<path d="M4.566 40.7957C4.63637 40.9683 4.80146 41.0807 4.98436 41.0807H10.7235C10.9738 41.0807 11.1766 40.8736 11.1766 40.6178V39.2297C11.1766 38.9741 10.9738 38.7669 10.7235 38.7669C10.4731 38.7669 10.2703 38.974 10.2703 39.2297V40.1551H6.07315L8.14849 38.0215C8.31464 37.8506 8.32481 37.578 8.17162 37.3949L5.96682 34.7566H10.2704V35.065C10.2704 35.3207 10.4732 35.5278 10.7236 35.5278C10.974 35.5278 11.1767 35.3207 11.1767 35.065V34.2938C11.1767 34.0382 10.9739 33.8311 10.7236 33.8311H4.98436C4.8076 33.8311 4.64697 33.9361 4.57294 34.1001C4.49892 34.2641 4.52508 34.457 4.63971 34.5943L7.21159 37.6717L4.66296 40.2918C4.53395 40.4244 4.49576 40.6231 4.566 40.7957Z" fill="#404E67"/>
<path d="M50.8591 37.2598H49.8628V40.4976C49.8628 40.6351 49.9744 40.7467 50.1119 40.7467C50.2493 40.7467 50.3609 40.6351 50.3609 40.4976C50.3609 40.36 50.4723 40.2486 50.61 40.2486C50.7477 40.2486 50.8591 40.36 50.8591 40.4976C50.8591 40.9097 50.5239 41.2448 50.1119 41.2448C49.6999 41.2448 49.3647 40.9097 49.3647 40.4976V37.2598H48.3684V39.9995C48.3684 40.6862 47.8098 41.2448 47.1231 41.2448C46.9855 41.2448 46.8741 41.1334 46.8741 40.9958C46.8741 40.8581 46.9855 40.7467 47.1231 40.7467C47.5351 40.7467 47.8703 40.4115 47.8703 39.9995V37.2598H47.3722C47.2348 37.2598 47.1231 37.3715 47.1231 37.5089C47.1231 37.6466 47.0117 37.758 46.8741 37.758C46.7364 37.758 46.625 37.6466 46.625 37.5089C46.625 37.0969 46.9602 36.7617 47.3722 36.7617H50.8591C50.9967 36.7617 51.1081 36.8731 51.1081 37.0108C51.1081 37.1484 50.9967 37.2598 50.8591 37.2598Z" fill="#404E67"/>
<path d="M14.0084 2.24121L12.9873 5.83732L12.2314 3.93251H10.7578V4.59418H11.801L12.8241 7.17264H13.2761L14.4886 2.90288H16.5859V2.24121H14.0084Z" fill="#404E67"/>
</svg>
